<svg width="179" height="59" viewBox="0 0 179 59" fill="none" xmlns="http://www.w3.org/2000/svg">
<g id="icon-loreal">
<path id="Union" fill-rule="evenodd" clip-rule="evenodd" d="M47.9523 37.9849V35.594H35.6918V21.542H33V37.9849H47.9523ZM48.8489 21.8405L45.8592 27.5214H43.7655L46.0084 21.8405H48.8489ZM66.2517 20.5593C67.9193 21.4331 69.3353 22.7155 70.3048 24.2411C71.2749 25.7666 71.7979 27.5353 71.7979 29.3034C71.7979 31.0708 71.2749 32.8401 70.3048 34.3651C69.3353 35.8906 67.9193 37.1731 66.2517 38.0469C64.5841 38.9219 62.665 39.3871 60.7465 39.3871C58.8279 39.3871 56.9088 38.9213 55.2412 38.0469C53.573 37.1731 52.157 35.8906 51.1875 34.3651C50.218 32.8401 49.6945 31.0714 49.6945 29.3034C49.6945 27.5347 50.218 25.766 51.1875 24.2411C52.157 22.7155 53.5736 21.4331 55.2412 20.5593C56.9082 19.6848 58.8279 19.2191 60.7465 19.2191C62.665 19.2191 64.5841 19.6848 66.2517 20.5593ZM64.947 36.2246C66.1963 35.5356 67.2549 34.5264 67.9783 33.33C68.7022 32.1337 69.087 30.763 69.0916 29.3648C69.0872 27.9665 68.7024 26.5957 67.9783 25.3995C67.2543 24.2025 66.1963 23.1939 64.947 22.5055C63.6977 21.8164 62.2576 21.4493 60.8181 21.4493C59.3786 21.4493 57.9385 21.8164 56.6891 22.5055C55.4398 23.1939 54.3819 24.2031 53.6579 25.3995C52.9339 26.5959 52.5452 27.98 52.5452 29.3648C52.5452 30.7489 52.9339 32.133 53.6579 33.33C54.3819 34.527 55.4404 35.5356 56.6891 36.2246C57.9385 36.9131 59.378 37.2802 60.8181 37.2802C62.2582 37.2802 63.6977 36.9131 64.947 36.2246ZM88.44 30.6977C89.1603 30.3234 90.0811 29.7042 90.5679 28.633C91.0536 27.5618 91.1041 26.0386 90.7087 24.8615C90.3127 23.6838 89.4702 22.8515 88.4965 22.3039C87.5228 21.7562 86.4191 21.542 85.3311 21.542H74.5661V37.9855H77.2574V31.4085H83.8591L88.9202 37.9855H91.9105L86.6773 31.184C87.2003 31.2026 87.7196 31.0726 88.44 30.6977ZM88.4303 26.4725C88.4598 27.2536 88.124 28.0414 87.5571 28.5204C86.9902 29.0001 86.2079 29.0163 85.4809 29.0163H77.2574V23.9335H85.4809C86.1616 23.9335 86.8813 23.9726 87.4446 24.4445C88.0073 24.9169 88.4014 25.6908 88.4303 26.4725ZM106.115 30.8097V28.568H96.9939V23.9335H109.254V21.542H94.3021V37.9849H109.254V35.594H96.9939V30.8097H106.115ZM102.227 19H106.264L100.582 21.093L102.227 19ZM112.394 37.9849L114.526 33.7994H124.318L126.449 37.9849H129.141L120.767 21.5414H118.075L109.703 37.9849H112.394ZM115.591 31.7069L119.421 24.1845L123.252 31.7069H115.591ZM145.437 37.9849V35.594H133.177V21.542H130.486V37.9849H145.437ZM144.249 24.4493L144.272 24.8416L144.274 24.8563C144.285 24.9902 144.296 25.1192 144.387 25.157V25.2418H143.868C143.814 25.1317 143.801 25.0077 143.799 24.8765C143.79 24.8105 143.79 24.741 143.791 24.6707C143.792 24.507 143.793 24.339 143.677 24.2013C143.561 24.1113 143.446 24.1125 143.369 24.1133C143.362 24.1134 143.356 24.1135 143.35 24.1135H142.659V25.2418H142.197V22.4946H143.388C143.67 22.4814 143.994 22.5271 144.177 22.7961C144.262 22.9225 144.311 23.0934 144.313 23.2529C144.314 23.4124 144.271 23.561 144.201 23.6736C144.138 23.7792 144.039 23.8593 143.923 23.8998C143.988 23.9088 144.047 23.9422 144.089 23.9931C144.147 24.0608 144.192 24.1387 144.222 24.223C144.245 24.2873 144.246 24.3457 144.247 24.4028C144.248 24.4183 144.248 24.4338 144.249 24.4493ZM143.308 23.7217C143.41 23.7235 143.558 23.7229 143.701 23.6314C143.875 23.4894 143.873 23.2944 143.813 23.1127C143.785 23.0535 143.742 23.0025 143.689 22.9646C143.636 22.9267 143.574 22.9031 143.509 22.896C143.32 22.8808 143.13 22.8827 142.94 22.8845C142.845 22.8855 142.75 22.8864 142.655 22.8852V23.7217H143.308ZM144.429 21.8513C144.779 22.0535 145.075 22.3496 145.277 22.6998C145.48 23.0501 145.589 23.4545 145.589 23.8589C145.589 24.2633 145.48 24.6671 145.277 25.0174C145.075 25.3676 144.779 25.6637 144.429 25.8659C144.079 26.0681 143.674 26.1764 143.27 26.1764C142.865 26.1764 142.461 26.0681 142.111 25.8659C141.76 25.6637 141.464 25.367 141.262 25.0174C141.06 24.6677 140.95 24.2633 140.95 23.8589C140.95 23.4545 141.06 23.0501 141.262 22.6998C141.464 22.3496 141.76 22.0535 142.111 21.8513C142.461 21.6491 142.865 21.5408 143.27 21.5408C143.674 21.5408 144.079 21.6491 144.429 21.8513ZM144.278 25.5867C144.577 25.4135 144.826 25.1654 145 24.8669C145.172 24.5696 145.263 24.2266 145.263 23.8836C145.263 23.5384 145.172 23.1994 145 22.9002C144.827 22.6029 144.576 22.352 144.278 22.1805C143.826 21.9191 143.288 21.8481 142.783 21.9831C142.279 22.1181 141.848 22.4479 141.586 22.9002C141.414 23.1992 141.323 23.5384 141.323 23.8836C141.323 24.2288 141.414 24.5679 141.586 24.8669C141.76 25.1658 142.009 25.4139 142.309 25.5865C142.608 25.7591 142.948 25.85 143.293 25.8502C143.639 25.8497 143.979 25.7588 144.278 25.5867Z" fill="#F46285"/>
</g>
</svg>
