<svg width="161" height="59" viewBox="0 0 161 59" fill="none" xmlns="http://www.w3.org/2000/svg">
<g id="icon-hairStudio">
<path id="Union" fill-rule="evenodd" clip-rule="evenodd" d="M50.652 10.1528V9.43231V9.43188H41V10.1524H44.0737V38.0996H41V38.8206H50.652V38.0996H47.5788V23.5498H57.1345V31.9671C57.1027 31.9783 57.0711 31.9896 57.0396 32.001C55.983 32.3855 55.1188 32.914 54.4466 33.5379C53.7744 34.2101 53.2942 34.8823 52.9581 35.6024C52.6215 36.3229 52.4779 36.9468 52.4779 37.5715C52.4779 38.3874 52.7177 39.1083 53.1979 39.7805C53.6781 40.4044 54.3503 41.0283 55.1667 41.6047C55.3283 41.7261 55.6252 41.9149 56.0292 42.1717C56.106 42.2205 56.1868 42.2719 56.2712 42.3257C56.7109 42.6023 57.1432 42.8904 57.5677 43.1898C57.9521 43.4781 58.192 43.6701 58.384 43.9099C58.5764 44.1503 58.6722 44.3423 58.6722 44.5821C58.6722 44.8225 58.6239 45.0145 58.4802 45.1107C58.3357 45.2069 58.1441 45.3031 57.8076 45.3506C55.4549 46.0228 53.6777 46.6475 52.5253 47.2231C52.0451 47.4638 51.8052 47.7037 51.8052 47.944C51.8052 48.1835 51.9493 48.4242 52.3333 48.7599C52.7177 49.0481 53.0059 49.1926 53.2458 49.1926C54.0621 49.1926 54.9263 49.0968 55.8389 48.8086C56.7324 48.5772 57.5889 48.2216 58.3836 47.752C59.152 47.2718 59.7284 46.7916 60.0645 46.2152C60.1168 46.1676 60.1682 46.121 60.2185 46.0754C60.6767 45.6599 61.0487 45.3224 61.2652 45.0628L61.5055 44.7746C62.5138 43.7179 63.2822 42.7575 63.7624 41.8454C63.2822 43.6222 63.0419 45.1111 63.0419 46.3597C63.0419 46.9836 63.1381 47.4155 63.2822 47.6075C63.378 47.7995 63.6662 47.8957 64.0985 47.8957C64.5787 47.8957 65.1073 47.7033 65.6833 47.3193C66.277 46.9537 66.8251 46.5186 67.3159 46.0232C67.6508 45.7222 67.9156 45.4444 68.1428 45.2062C68.2415 45.1026 68.3332 45.0064 68.4204 44.9191L68.9485 44.3906C69.1862 44.1054 69.3299 43.9617 69.4261 43.8655L69.4287 43.8629C69.4511 44.1084 69.4632 44.3435 69.4744 44.5635C69.4874 44.8167 69.4993 45.0497 69.5249 45.2552C69.5728 45.6392 69.669 46.0236 69.861 46.4076C70.0051 46.7441 70.2933 46.9361 70.5815 46.9361C70.9176 46.9361 71.3499 46.7916 71.878 46.5034C72.3575 46.2632 72.7884 45.9286 73.2196 45.5938L73.2229 45.5913C73.6068 45.2073 73.8951 44.8708 74.0392 44.5826C74.1349 45.1115 74.279 45.5917 74.5673 45.9757C74.8076 46.3597 75.1432 46.5996 75.5756 46.5996C76.0886 46.6003 76.5841 46.4125 76.9678 46.0719C77.2191 45.892 77.4436 45.659 77.6813 45.4122C77.7616 45.3289 77.8434 45.244 77.9283 45.159L78.2165 44.8708C78.5526 44.5351 78.7929 44.2948 78.9849 44.0549C78.7925 44.5351 78.7446 45.0153 78.7446 45.4472C78.7446 46.0232 78.8887 46.4559 79.2248 46.7441C79.5609 46.9836 79.9453 47.1273 80.3293 47.1273C80.8095 47.1273 81.2901 46.8874 81.7703 46.4072C82.2552 45.8725 82.6891 45.2937 83.0664 44.6784C83.4508 44.0062 83.7865 43.2861 84.123 42.4693C84.2667 43.2373 84.4591 43.9099 84.6994 44.4385C84.9393 44.9661 85.1796 45.3989 85.4195 45.6871C85.7077 46.0228 85.9481 46.2147 86.2363 46.3593C86.4538 46.4889 86.7032 46.5552 86.9564 46.5504C87.2446 46.5504 87.5811 46.4067 87.9168 46.1185C88.2045 45.9265 88.5406 45.5904 88.9246 45.2065L89.0208 45.1581C89.0449 45.1102 89.0808 45.0744 89.1167 45.0387C89.1288 45.0265 89.141 45.0144 89.1527 45.0018C89.1574 44.9981 89.1617 44.9939 89.1659 44.9896C89.1778 44.9776 89.1897 44.9657 89.2133 44.9657C89.5497 44.5818 89.8378 44.2937 89.9815 44.15L89.9817 44.1498C90.0418 44.0897 90.1185 44.0212 90.2082 43.941C90.334 43.8286 90.4856 43.6931 90.6539 43.5251L90.6661 43.5129C90.9475 43.2319 91.1355 43.0442 91.2303 42.9974C91.2612 42.9365 91.3495 42.8562 91.4589 42.7567C91.5222 42.6991 91.5926 42.6351 91.663 42.5647C91.9987 44.1015 92.3827 45.3501 92.8154 46.3105C93.2957 47.2709 93.8233 47.7511 94.4472 47.7511C95.3114 47.7511 96.2243 47.4634 97.0402 46.8869C97.7612 46.4551 98.385 45.9265 98.8653 45.3501L99.5375 44.6779C99.5841 44.5833 99.6783 44.4892 99.7729 44.3946L99.7778 44.3897L100.258 43.9095C100.209 44.1503 100.161 44.3901 100.161 44.6305C100.161 45.4947 100.497 46.1673 101.121 46.5504C101.698 46.9357 102.562 47.1268 103.619 47.1268C104.195 47.1268 104.771 46.9832 105.396 46.695C106.02 46.4067 106.644 46.0223 107.172 45.4947C107.7 44.9661 108.132 44.2939 108.468 43.5255C108.805 42.7571 108.948 41.9412 108.948 40.9808C108.948 40.2124 108.756 39.5402 108.372 39.06C108.308 38.9722 108.237 38.8923 108.16 38.8201H109.427V38.0992H106.306V23.8376H109.283C110.244 23.8376 111.108 24.2699 111.876 25.1824C112.644 26.0949 113.124 27.6796 113.316 29.9366C113.316 30.0582 113.328 30.3041 113.347 30.6677C113.365 31.0199 113.389 31.4824 113.412 32.0494C113.448 32.9035 113.51 33.6256 113.559 34.1962C113.576 34.3955 113.592 34.5763 113.604 34.7378C113.65 35.353 113.746 35.9634 113.892 36.5628C114.037 37.1875 114.277 37.6677 114.613 38.0996C115.141 38.8206 115.958 39.1562 117.062 39.1562C117.856 39.1593 118.641 38.9957 119.367 38.676C120.135 38.3404 120.616 38.0522 120.855 37.7156L120.858 37.7131C120.953 37.6186 121 37.5711 121 37.4757C121 37.3795 120.952 37.3312 120.855 37.3312C120.855 37.3312 120.76 37.3312 120.663 37.3795C120.183 37.8114 119.656 38.0034 119.031 38.0034C118.311 38.0034 117.782 37.6677 117.591 36.9468C117.494 36.5628 117.447 36.1309 117.446 35.6969C117.417 35.4366 117.406 35.0359 117.391 34.5061C117.381 34.1577 117.369 33.7535 117.35 33.2967C117.35 32.1443 117.302 31.1352 117.205 30.271C117.062 28.8308 116.678 27.6784 116.198 26.8142C115.669 25.9021 115.093 25.2778 114.372 24.8455C113.7 24.4131 112.739 23.9808 111.588 23.6447C113.46 23.2124 114.901 22.3961 115.909 21.1958C116.918 19.9476 117.398 18.4591 117.398 16.6341C117.398 15.1456 117.061 13.8495 116.437 12.7929C115.765 11.6884 114.852 10.8721 113.7 10.2961C112.547 9.72009 111.251 9.43188 109.859 9.43188H99.7269V10.1524H102.801V38.0992H99.7269V38.8201H102.589C102.362 39.0334 102.164 39.2538 101.985 39.4923C101.745 39.8763 101.553 40.2124 101.505 40.4527C101.409 41.0283 101.169 41.5568 100.785 42.037C100.448 42.5651 99.8244 43.2373 98.864 44.054C98.8401 44.0777 98.8282 44.1016 98.8162 44.1256C98.8045 44.1489 98.7929 44.1722 98.7702 44.1952L98.9598 44.0057L98.2397 44.7267C97.9577 45.0083 97.6523 45.2653 97.3267 45.4951C96.991 45.7345 96.6545 45.8308 96.3663 45.8308C95.9344 45.8308 95.55 45.5909 95.3097 45.1107C95.0215 44.5821 94.782 43.9583 94.6375 43.1898C94.4938 42.4689 94.3976 41.653 94.3493 40.8363C94.3018 40.7405 94.1573 40.5968 93.8216 40.4532C93.5338 40.309 93.2456 40.2128 92.9574 40.2128C92.8137 40.2128 92.6696 40.2603 92.5734 40.3574C92.2911 40.602 92.0189 40.858 91.7575 41.1249L90.7009 42.1815C90.4181 42.4644 90.1851 42.7139 89.9924 42.9204C89.8579 43.0646 89.7429 43.1877 89.6443 43.2865L89.6297 43.301C89.49 43.4399 89.3496 43.5795 89.1641 43.7184L88.9238 44.0066H88.8763C88.8763 44.0549 88.828 44.0549 88.828 44.0549C88.8121 44.0708 88.7962 44.0868 88.7802 44.1028C88.7485 44.1348 88.7165 44.167 88.6843 44.1986L88.4444 44.4868C88.2961 44.6292 88.1351 44.7577 87.9634 44.8708C87.676 45.0628 87.4353 45.159 87.2433 45.159C87.0034 45.159 86.7631 45.0153 86.6194 44.6788C86.4274 44.3906 86.2829 43.9591 86.1392 43.3827C85.9953 42.8566 85.8998 42.236 85.804 41.6141L85.8027 41.6056C85.743 41.217 85.7019 40.8842 85.6678 40.6073C85.6471 40.4396 85.6289 40.2924 85.6107 40.1658C85.7699 39.7413 85.9145 39.2875 86.0607 38.8206H86.7152V38.0996H86.2871C86.3328 37.9562 86.3795 37.8124 86.4274 37.6686C86.7156 36.8039 86.9555 35.891 87.1475 35.0268C87.2916 34.1622 87.3878 33.2988 87.3878 32.5304C87.3878 32.1464 87.3395 31.9057 87.2433 31.7137C87.0996 31.5217 86.9551 31.4255 86.8114 31.4255C86.4749 31.4255 86.0904 31.7137 85.7548 32.1939C85.322 32.9148 84.938 33.8265 84.6498 35.0268C84.3442 36.1187 84.1178 37.1306 83.9712 38.0996H83.5932L75.6222 9H75.2382L67.9214 36.036C67.8779 35.7067 67.7553 35.5545 67.6024 35.5545H66.8818C66.97 34.8788 67.0581 34.347 67.1242 33.948C67.1662 33.6945 67.1993 33.4946 67.2179 33.3454V33.0572C67.2179 33.0098 67.2179 32.961 67.1701 32.9136C67.1502 32.9136 67.1304 32.9053 67.1072 32.8956C67.0743 32.8819 67.0345 32.8652 66.9781 32.8652C66.8818 32.8178 66.834 32.8178 66.7377 32.8178C66.4495 32.8178 66.3054 32.914 66.2575 33.106C66.2031 33.3512 66.1332 33.5812 66.0652 33.8044C66.0135 33.9743 65.963 34.1403 65.9214 34.3063C65.8498 34.5217 65.7899 34.7251 65.7301 34.9287C65.6699 35.1333 65.6097 35.338 65.5374 35.5549C63.3288 35.5549 61.8882 35.5549 61.216 35.6024C61.0719 35.6024 60.9757 35.6507 60.9278 35.7944C60.8795 35.8906 60.8316 36.0351 60.8316 36.2271C60.8316 36.4191 60.8799 36.6111 60.9278 36.7548C61.0236 36.8989 61.1198 36.9951 61.2639 36.9951C62.0319 37.043 63.0406 37.0913 64.3371 37.0913H65.0572C64.9615 37.427 64.8174 37.7635 64.6732 38.0992C64.6732 38.0993 64.6731 38.0995 64.673 38.0996H64.2418V38.8206H64.337L64.3346 38.8265C64.2375 39.0685 64.046 39.5461 63.7128 40.2124C63.3767 40.8363 62.9449 41.5093 62.4646 42.2294C62.1285 42.7571 61.7441 43.2373 61.3601 43.6701L61.024 44.0057H60.9761C60.8853 44.1196 60.7945 44.2226 60.7087 44.3198C60.6132 44.4281 60.524 44.5293 60.448 44.6305C60.4964 44.4385 60.5443 44.1981 60.5443 43.9583C60.5443 43.5259 60.448 43.1898 60.2561 42.8059C60.0641 42.4693 59.7758 42.1337 59.4876 41.8454C59.2563 41.6144 59.0024 41.4059 58.7569 41.2044C58.6457 41.1131 58.5362 41.0232 58.4314 40.9334C58.047 40.693 57.5668 40.3569 57.0387 39.9721C56.4833 39.5635 56.0347 39.1721 55.682 38.8201H63.7612V38.0992H60.6401V32.8919C60.8898 32.6197 61.0249 32.3137 61.0249 31.9536C61.0249 31.5692 60.8812 31.3772 60.6409 31.3772C60.6406 31.3772 60.6403 31.3772 60.6401 31.3772V10.1524H63.5692V9.43188H54.0134V10.1524H57.1345V22.7818H47.5788V10.1528H50.652ZM57.1345 34.374C57.0385 34.385 56.9428 34.3942 56.8472 34.4021C56.8472 34.3546 56.8472 34.3059 56.895 34.2101C56.9544 34.1554 57.0032 34.0903 57.0392 34.0181C57.0392 33.9706 57.087 33.9219 57.087 33.9219C57.1196 33.856 57.1298 33.8352 57.133 33.8134C57.1345 33.8034 57.1345 33.7931 57.1345 33.7782C57.1345 33.7782 57.0866 33.7299 57.0383 33.7299C56.8463 33.7299 56.5581 33.8261 56.1262 34.0181C55.6939 34.2101 55.3578 34.4983 55.0217 34.9302C54.6856 35.3629 54.4936 35.8431 54.4936 36.5153C54.4936 37.0568 54.663 37.5978 55.0419 38.0992H57.1345V34.374ZM66.2131 38.8206C66.0518 39.6281 65.8906 40.556 65.7294 41.6043C65.4891 43.4293 65.3454 44.7737 65.3454 45.5904C65.3454 45.9744 65.3938 46.1669 65.4417 46.1669C65.4711 46.1669 65.537 46.1304 65.6281 46.0801C65.685 46.0486 65.7518 46.0117 65.8257 45.9749C66.0176 45.8791 66.1618 45.7829 66.3537 45.6383C66.5441 45.4959 66.7344 45.306 66.9251 45.1157L66.9302 45.1107C67.1618 44.9274 67.3713 44.7177 67.5545 44.4859C67.7948 44.2939 67.9385 44.1503 67.9868 44.1019H68.0347L68.4187 43.6701C68.7552 43.3335 69.043 42.8533 69.3312 42.2294C69.6673 41.461 69.9076 40.5481 70.0996 39.4927C70.0996 39.4444 70.1954 39.3965 70.4357 39.3965C70.6473 39.3965 70.9702 39.4333 71.3395 39.4754C71.3896 39.4811 71.4406 39.4869 71.4923 39.4927C71.9246 39.589 72.1166 39.6364 72.1166 39.6847C71.9246 40.0687 71.7805 40.5006 71.6364 40.9808C71.5132 41.35 71.425 41.7546 71.3422 42.1346C71.3281 42.1991 71.3142 42.2629 71.3003 42.3257C71.2956 42.373 71.2909 42.4199 71.2862 42.4664C71.2434 42.8911 71.2041 43.2804 71.2041 43.6705C71.2041 44.0545 71.252 44.3906 71.3482 44.6784C71.4444 44.9187 71.5402 45.0623 71.7322 45.0623C72.2124 45.0623 72.7888 44.6784 73.3648 43.9099C73.9408 43.1415 74.2773 42.4219 74.4693 41.7009C74.5177 41.5572 74.6134 41.5098 74.8059 41.5098C74.9979 41.5098 75.1898 41.5572 75.334 41.6051C75.526 41.7013 75.6222 41.7497 75.6222 41.7971V43.142C75.6445 43.3212 75.6564 43.5006 75.6677 43.6703C75.6806 43.864 75.6926 44.0449 75.7184 44.1986C75.7663 44.5351 75.8146 44.8233 75.9104 45.0628C75.9583 45.3031 76.0545 45.3993 76.1986 45.3993C76.2944 45.3993 76.5347 45.2073 76.8708 44.9191C77.073 44.7543 77.2655 44.5778 77.4472 44.3906L77.7354 44.1024L78.0715 43.7667C78.2364 43.6292 78.4014 43.4444 78.5843 43.2396C78.721 43.0865 78.8677 42.9222 79.0319 42.758C79.2209 42.5273 79.4373 42.2781 79.6732 42.0065C79.977 41.6567 80.3131 41.2697 80.6645 40.8371C81.3367 40.1171 81.9131 39.5411 82.4408 39.1566C82.5982 39.0281 82.7513 38.9164 82.9013 38.8206H76.1503V38.0996H79.8478L77.5426 29.6962H70.292L67.9872 38.0996H72.2607V38.8206H66.2131ZM66.3641 38.0996H67.3629L67.623 37.1388H66.5936C66.5171 37.432 66.4406 37.7523 66.3641 38.0996ZM89.1527 45.0018C89.1758 44.977 89.197 44.9503 89.2128 44.9182L89.1171 45.014C89.133 45.014 89.1438 45.0088 89.1527 45.0018ZM70.4836 28.9762L73.8934 16.443L77.3023 28.9762H70.4836ZM94.4938 10.1524H97.5187V9.43188H87.8676V10.1524H90.9887V38.0992H87.8676V38.8201H97.6633V38.0992H94.4938V36.1889C94.5979 36.1615 94.6944 36.1265 94.782 36.0826C95.0702 35.8906 95.3097 35.6986 95.4059 35.4587C95.5504 35.1705 95.5979 34.9302 95.5979 34.6428C95.5979 34.2584 95.55 33.9219 95.358 33.6332C95.2135 33.2976 94.9736 33.153 94.7333 33.153C94.6654 33.153 94.5856 33.1711 94.4938 33.2072V10.1524ZM109.86 23.1175H106.307V10.1524H109.86C111.253 10.1524 112.261 10.6322 112.981 11.5447C113.654 12.5051 113.989 13.9457 113.989 15.8665V17.4513C113.989 19.3242 113.654 20.7648 112.981 21.6769C112.261 22.6373 111.253 23.1175 109.86 23.1175ZM80.5683 45.3031C80.5683 44.9666 80.7603 44.4385 81.1443 43.6217C81.6245 42.5651 82.4887 41.269 83.8335 39.7322C83.8335 40.1166 83.8814 40.5968 83.9297 41.077C83.9036 41.1265 83.877 41.1766 83.8501 41.2274C83.4329 42.0159 82.9286 42.9689 82.2971 44.0061C81.577 45.1111 81.0964 45.6875 80.8565 45.6875C80.7612 45.6875 80.7128 45.6396 80.6654 45.5926L80.6641 45.5913L80.6635 45.59C80.6158 45.4942 80.5683 45.3989 80.5683 45.3031ZM103.713 41.461C103.713 41.461 103.809 41.3165 103.954 41.1245C104.242 40.7888 104.481 40.5481 104.77 40.3569C105.01 40.1649 105.394 40.0687 105.922 40.0687C106.546 40.0687 107.027 40.3086 107.267 40.7888C107.506 41.269 107.603 41.7967 107.603 42.3731C107.603 42.9016 107.506 43.3818 107.314 43.8137C107.075 44.2465 106.787 44.6305 106.45 44.9187C106.128 45.2461 105.734 45.4929 105.299 45.6388C104.915 45.8308 104.53 45.927 104.146 45.927C103.57 45.927 103.186 45.7345 103.041 45.3506C102.849 45.0149 102.801 44.5821 102.801 44.0545C102.801 43.5255 102.849 42.9495 102.993 42.3731C103.137 41.7967 103.282 41.5093 103.425 41.5093C103.57 41.5093 103.666 41.5093 103.713 41.461Z" fill="#F46285"/>
</g>
</svg>
