<svg width="32" height="32" viewBox="0 0 32 32" fill="none" xmlns="http://www.w3.org/2000/svg">
<g id="icon-check_circle">
<mask id="mask0_286_2348" style="mask-type:alpha" maskUnits="userSpaceOnUse" x="0" y="0" width="32" height="32">
<rect id="Bounding box" width="32" height="32" fill="#D9D9D9"/>
</mask>
<g mask="url(#mask0_286_2348)">
<path id="check_circle" d="M14.1333 22.1337L23.5333 12.7337L21.6666 10.867L14.1333 18.4003L10.3333 14.6003L8.46663 16.467L14.1333 22.1337ZM16 29.3337C14.1555 29.3337 12.4222 28.9837 10.8 28.2837C9.17774 27.5837 7.76663 26.6337 6.56663 25.4337C5.36663 24.2337 4.41663 22.8225 3.71663 21.2003C3.01663 19.5781 2.66663 17.8448 2.66663 16.0003C2.66663 14.1559 3.01663 12.4225 3.71663 10.8003C4.41663 9.1781 5.36663 7.76699 6.56663 6.56699C7.76663 5.36699 9.17774 4.41699 10.8 3.71699C12.4222 3.01699 14.1555 2.66699 16 2.66699C17.8444 2.66699 19.5777 3.01699 21.2 3.71699C22.8222 4.41699 24.2333 5.36699 25.4333 6.56699C26.6333 7.76699 27.5833 9.1781 28.2833 10.8003C28.9833 12.4225 29.3333 14.1559 29.3333 16.0003C29.3333 17.8448 28.9833 19.5781 28.2833 21.2003C27.5833 22.8225 26.6333 24.2337 25.4333 25.4337C24.2333 26.6337 22.8222 27.5837 21.2 28.2837C19.5777 28.9837 17.8444 29.3337 16 29.3337Z" fill="#F46285"/>
</g>
</g>
</svg>
