<svg width="163" height="59" viewBox="0 0 163 59" fill="none" xmlns="http://www.w3.org/2000/svg">
<g id="icon-prenatal">
<path id="Vector" d="M60.1317 24.0542C58.3474 24.5021 57.7079 21.9304 59.4916 21.4817C60.0385 21.3439 60.6809 21.1452 61.1485 20.7207C61.5986 20.3124 61.9496 19.6277 62.0144 18.4466C62.1164 16.6029 64.7609 16.7466 64.6582 18.5918C64.5475 20.5968 63.8403 21.86 62.9248 22.6906C62.0268 23.5051 60.9948 23.8372 60.1317 24.0542ZM21.0339 24.5644C20.0114 26.5255 17.1957 25.0614 18.2212 23.096C19.4914 20.6599 22.6777 17.9958 26.1998 16.4988C28.1466 15.6718 30.2172 15.1785 32.1574 15.2437C34.2564 15.3141 36.2126 16.0149 37.7523 17.5984C39.1477 19.0339 40.144 21.1657 40.5002 24.1744C41.2693 30.666 38.8724 33.5985 35.9956 34.8785C33.2681 36.091 30.2252 35.6431 29.1859 35.4943C27.0017 35.1805 27.4467 32.0318 29.6316 32.3456C30.4422 32.4614 32.8194 32.8111 34.7181 31.9658C36.4683 31.1873 37.9038 29.2079 37.3517 24.5468C37.0844 22.2903 36.41 20.7669 35.4836 19.8132C34.5827 18.8858 33.3788 18.4738 32.0569 18.429C30.5762 18.3792 28.9638 18.7692 27.4256 19.4224C24.5466 20.6474 21.9946 22.7221 21.0339 24.5644ZM22.1431 25.5328C21.8212 24.8049 21.4986 24.0769 22.9487 23.4362C24.3987 22.7954 24.7214 23.5234 25.0425 24.2506C26.5268 27.6039 27.0884 30.872 26.9631 34.4071C26.8415 37.8461 26.0629 41.5174 24.8525 45.7731C24.2465 47.9021 21.1978 47.0333 21.8037 44.9015C22.945 40.8877 23.6784 37.4531 23.7906 34.2956C23.8998 31.2327 23.4177 28.4132 22.1431 25.5328ZM40.2482 35.7772C38.0414 35.7772 38.0414 32.5912 40.2482 32.5912C40.675 32.5912 42.3413 31.3925 43.7266 29.8721C43.9808 29.5942 44.2138 29.312 44.4148 29.0319C44.0601 28.812 43.7492 28.5628 43.4819 28.2996C42.7776 27.6068 42.3588 26.7923 42.1884 26.0761C41.7478 24.2198 43.1068 22.3072 45.0973 23.1634C46.7054 23.8548 47.6274 24.8129 48.0498 25.9148C48.1554 26.1897 48.2268 26.4683 48.2676 26.7476C48.8539 26.7029 49.5363 26.5636 50.3265 26.2989C51.5909 25.8752 52.8188 27.2659 52.2536 28.4828C51.2995 30.537 50.1947 34.6505 50.1947 37.9208C50.1947 38.8841 50.2923 39.7389 50.5232 40.3892C50.6812 40.8342 50.8866 41.1494 51.1473 41.2711C51.2595 41.3239 51.4139 41.3525 51.6164 41.3525C52.6367 41.3525 54.1603 40.8181 55.8041 39.9295C55.1778 38.2573 54.9578 36.4128 55.0474 34.6043C55.1428 32.6901 55.5937 30.8024 56.2746 29.216C56.9964 27.5357 58.0044 26.1501 59.1653 25.3459C60.7479 24.2499 62.5148 24.1355 64.2336 25.5042C65.6465 26.6303 66.4739 27.8978 66.8373 29.2423C67.3806 31.254 66.8591 33.3133 65.696 35.2516C64.6451 37.003 63.0493 38.6679 61.2759 40.0872C60.8979 40.3892 60.5112 40.6817 60.1179 40.9603C60.7297 41.6186 61.5061 42.1545 62.4718 42.5137C63.9306 43.0562 64.8024 41.689 65.5365 39.7001C65.9415 38.6019 66.2852 37.4047 66.637 36.1819C67.9778 31.5201 69.4111 26.5335 73.8028 25.7176C74.7773 25.5365 75.4903 26.1332 76.0096 27.205C76.7183 26.6281 77.5871 26.0167 78.4866 25.5754C79.4312 25.1128 80.4297 24.8232 81.3882 24.8899H81.394C82.5527 24.972 83.5811 25.5108 84.3211 26.7417C84.7238 27.4132 85.021 28.304 85.1717 29.4637C85.1761 29.4982 85.1717 29.8963 85.1659 29.9307C85.1586 29.9754 82.5928 45.0928 88.1585 41.5504C87.2882 39.9266 86.8257 37.7977 87.0406 35.1211C87.1899 33.2796 87.554 31.7562 88.0762 30.4989C88.9779 28.326 90.3376 26.9888 91.8729 26.219C93.3907 25.4588 95.0279 25.2784 96.5399 25.4016C97.5027 25.4801 98.4292 25.6861 99.2412 25.9412C99.5966 23.8511 102.714 24.3863 102.35 26.5496C102.339 26.6076 98.9259 46.5561 106.119 41.3914C104.693 36.731 105.037 29.2233 105.499 24.0593C104.422 24.1253 103.584 24.2037 103.126 24.269C100.941 24.5827 100.496 21.4333 102.68 21.1203C103.267 21.036 104.399 20.9333 105.826 20.8542C105.911 20.1118 105.999 19.3696 106.088 18.6277C106.307 16.424 109.455 16.7326 109.236 18.9386C109.2 19.3007 109.173 19.5177 109.139 19.8117C109.108 20.0741 109.069 20.3864 109.03 20.7383C109.576 20.7288 110.135 20.7251 110.7 20.7273C113.019 20.7391 115.445 20.8644 117.439 21.198C119.616 21.5623 119.095 24.6986 116.919 24.3342C115.141 24.0366 112.88 23.9244 110.687 23.9141C110.021 23.9109 109.355 23.9163 108.69 23.9303C108.115 29.9263 107.604 39.4222 109.997 42.2476C110.697 43.0738 112.021 42.8832 114.297 40.9376C113.622 39.4024 113.288 37.4722 113.477 35.1211C113.627 33.2796 113.991 31.7562 114.513 30.4989C115.415 28.326 116.774 26.9888 118.31 26.219C119.828 25.4588 121.465 25.2784 122.977 25.4016C123.94 25.4801 124.866 25.6861 125.678 25.9412C126.034 23.8511 129.149 24.3863 128.787 26.5496C128.776 26.6083 125.31 46.8633 132.725 41.2653C133.18 40.7424 133.609 40.1975 134.011 39.6326C132.36 33.5141 133.407 25.1494 135.18 19.4107C135.835 17.2861 136.596 15.4864 137.366 14.2562C138.488 12.4608 139.812 11.6339 141.225 12.1529C142.123 12.4821 142.837 13.3574 143.284 14.8838C144.53 19.1365 144.009 24.1289 142.63 28.8413C141.389 33.0772 139.443 37.1203 137.47 40.1876C137.861 41.1443 138.359 41.9874 138.978 42.6772C139.036 42.7447 139.076 42.7777 139.096 42.7843C139.166 42.8055 139.342 42.7095 139.579 42.5379C140.057 42.1941 140.554 41.6186 141.016 40.9244C141.988 39.4655 142.723 37.5939 142.823 36.1951C142.981 33.9841 146.152 34.2062 145.994 36.4202C145.859 38.3218 144.9 40.8005 143.643 42.6919C142.984 43.683 142.223 44.5415 141.426 45.1163C140.389 45.864 139.273 46.1712 138.153 45.8222C137.595 45.6478 137.079 45.3179 136.622 44.8069C136.147 44.2714 135.73 43.6857 135.379 43.0599C135.26 43.2012 135.139 43.341 135.016 43.4792C135.018 43.4778 135.018 43.4778 135.016 43.4778C134.946 43.5396 134.875 43.6021 134.806 43.6654C129.953 47.471 127.356 46.5663 126.039 43.7424C125.142 44.5804 124.015 45.1485 122.803 45.4146C121.587 45.6793 120.278 45.6426 119.035 45.2643C117.944 44.9338 116.946 44.3508 116.119 43.5621C112.213 46.7995 109.482 46.5561 107.581 44.3135C107.569 44.3003 107.56 44.2879 107.55 44.2747C103.223 47.3515 100.847 46.3955 99.6068 43.7395C98.7081 44.5789 97.5799 45.1485 96.3666 45.4146C95.1503 45.6793 93.8415 45.6426 92.5983 45.2643C91.7296 45.0012 90.9172 44.5773 90.2029 44.0144C78.7131 52.525 81.6198 32.0941 82.0043 29.647C81.9133 29.0781 81.7771 28.6676 81.6074 28.3846C81.4829 28.1771 81.3314 28.0877 81.1711 28.0767C80.8113 28.054 80.3525 28.2035 79.874 28.4381C78.74 28.9938 77.6316 29.9549 77.0591 30.5304C77.0169 30.5737 76.9739 30.6147 76.9309 30.658C77.7131 36.0316 76.9987 43.8436 76.995 43.878C76.7998 46.0847 73.6266 45.8171 73.8232 43.6046C73.8261 43.5701 74.6746 34.0398 74.6142 30.3112C74.545 29.452 74.5348 28.9696 74.3236 28.8509C71.8903 29.3538 70.7439 33.3382 69.6726 37.0668C69.2924 38.3886 68.9195 39.684 68.5102 40.7953C67.1446 44.4983 65.2649 46.9454 61.3815 45.5004C59.6576 44.8589 58.3379 43.8722 57.3591 42.6728C55.1924 43.8326 53.089 44.5386 51.6164 44.5386C50.9536 44.5386 50.3527 44.4008 49.8094 44.1464C48.7017 43.6281 47.9719 42.6816 47.5371 41.4603C47.1759 40.442 47.0229 39.225 47.0229 37.9208C47.0229 35.3652 47.626 32.3368 48.3594 29.9285C48.0892 29.9439 47.8291 29.9469 47.5786 29.9388C47.1831 30.6748 46.6566 31.3808 46.0696 32.0252C44.157 34.1256 41.2722 35.7772 40.2482 35.7772ZM58.5797 38.1576C58.8244 37.9773 59.0662 37.7911 59.3051 37.6005C60.8032 36.4018 62.1339 35.0229 62.9816 33.6102C63.7172 32.3844 64.0683 31.1601 63.7762 30.0781C63.5847 29.3692 63.1062 28.6676 62.2628 27.9961C61.8251 27.6471 61.3713 27.6794 60.962 27.9623C60.3036 28.4183 59.6824 29.3208 59.1864 30.4762C58.6511 31.7246 58.2957 33.2209 58.2192 34.756C58.1624 35.9092 58.2673 37.0763 58.5797 38.1576ZM98.7969 29.1522C97.991 28.8523 97.1485 28.6634 96.2923 28.5906C95.2727 28.5078 94.2057 28.6104 93.2866 29.0715C92.3849 29.5231 91.5714 30.3464 91.0004 31.721C90.6122 32.6557 90.3362 33.8543 90.2124 35.3711C89.9975 38.0374 90.5962 39.8555 91.5736 40.9669C92.1198 41.59 92.7986 42.0006 93.5152 42.2183C94.2237 42.4321 94.9744 42.4616 95.6973 42.3041C96.7118 42.0819 97.5989 41.4962 98.0657 40.6128C98.2194 40.321 98.3745 40.027 98.6032 39.8379C98.1568 36.2757 98.4743 31.9944 98.7969 29.1522ZM125.234 29.1522C124.427 28.8522 123.584 28.6633 122.728 28.5906C121.71 28.5078 120.643 28.6104 119.722 29.0715C118.822 29.5231 118.008 30.3464 117.437 31.721C117.049 32.6557 116.772 33.8543 116.649 35.3711C116.434 38.0374 117.033 39.8555 118.01 40.9669C118.557 41.59 119.234 42.0006 119.952 42.2183C120.661 42.4321 121.411 42.4616 122.134 42.3041C123.149 42.0819 124.036 41.4962 124.503 40.6128C124.656 40.321 124.81 40.0285 125.039 39.8394C124.592 36.2772 124.91 31.9944 125.234 29.1522ZM136.424 35.7017C137.653 33.3837 138.782 30.713 139.592 27.9469C140.753 23.9853 141.095 19.8953 140.407 16.3793C140.265 15.655 140.034 15.8566 139.792 16.3764C139.319 17.3976 138.701 18.7304 138.201 20.3461C136.849 24.7315 135.9 30.7445 136.424 35.7017Z" fill="#F46285"/>
</g>
</svg>
